<svg width="24" height="24" viewBox="0 0 24 24" fill="none" xmlns="http://www.w3.org/2000/svg">
<path d="M20.5875 11.3321L4.08754 3.08214C3.95821 3.01746 3.81295 2.99155 3.66924 3.00752C3.52554 3.02348 3.38951 3.08065 3.27754 3.17214C3.1706 3.26176 3.09079 3.37943 3.04707 3.51192C3.00334 3.64441 2.99745 3.78648 3.03004 3.92214L5.01754 11.2496H13.5V12.7496H5.01754L3.00004 20.0546C2.96946 20.1679 2.96589 20.2868 2.98961 20.4017C3.01334 20.5167 3.06371 20.6244 3.13665 20.7163C3.2096 20.8082 3.3031 20.8818 3.40964 20.931C3.51617 20.9802 3.63276 21.0037 3.75004 20.9996C3.86744 20.9989 3.98304 20.9707 4.08754 20.9171L20.5875 12.6671C20.7104 12.6042 20.8135 12.5086 20.8855 12.3908C20.9575 12.273 20.9956 12.1377 20.9956 11.9996C20.9956 11.8616 20.9575 11.7262 20.8855 11.6085C20.8135 11.4907 20.7104 11.3951 20.5875 11.3321Z" fill="#141414"/>
</svg>
