<svg width="60" height="61" viewBox="0 0 60 61" fill="none" xmlns="http://www.w3.org/2000/svg">
<path d="M45 32.9951H32.5V45.4951C32.5 46.1582 32.2366 46.794 31.7678 47.2629C31.2989 47.7317 30.663 47.9951 30 47.9951C29.337 47.9951 28.7011 47.7317 28.2322 47.2629C27.7634 46.794 27.5 46.1582 27.5 45.4951V32.9951H15C14.337 32.9951 13.7011 32.7317 13.2322 32.2629C12.7634 31.794 12.5 31.1582 12.5 30.4951C12.5 29.8321 12.7634 29.1962 13.2322 28.7274C13.7011 28.2585 14.337 27.9951 15 27.9951H27.5V15.4951C27.5 14.8321 27.7634 14.1962 28.2322 13.7273C28.7011 13.2585 29.337 12.9951 30 12.9951C30.663 12.9951 31.2989 13.2585 31.7678 13.7273C32.2366 14.1962 32.5 14.8321 32.5 15.4951V27.9951H45C45.663 27.9951 46.2989 28.2585 46.7678 28.7274C47.2366 29.1962 47.5 29.8321 47.5 30.4951C47.5 31.1582 47.2366 31.794 46.7678 32.2629C46.2989 32.7317 45.663 32.9951 45 32.9951Z" fill="#141414"/>
</svg>
