<svg width="20" height="20" viewBox="0 0 20 20" fill="none" xmlns="http://www.w3.org/2000/svg">
<path d="M8.76855 11.2334C9.40779 11.8726 10.2746 12.2319 11.1786 12.2325C11.4772 12.2284 11.7743 12.1903 12.0644 12.1192C12.6398 11.9595 13.1644 11.6544 13.5877 11.2334L14.3952 10.4267L16.7936 8.02003C17.2433 7.53851 17.5437 6.93679 17.6582 6.28789C17.7727 5.63899 17.6965 4.97081 17.4387 4.36441C17.1809 3.75801 16.7526 3.23947 16.2059 2.87169C15.6591 2.50392 15.0174 2.30273 14.3586 2.29253C13.4753 2.2768 12.6204 2.6042 11.9736 3.20587L9.57522 5.61337" stroke="#EEEEE4" stroke-width="1.5" stroke-linecap="round" stroke-linejoin="round"/>
<path d="M10.3709 14.4471L7.96092 16.8537C7.47524 17.2823 6.87758 17.5638 6.23781 17.6653C5.59805 17.7667 4.94263 17.684 4.34817 17.4266C3.75372 17.1693 3.24481 16.7481 2.88094 16.2122C2.51708 15.6763 2.31329 15.0479 2.29342 14.4004C2.26832 13.5327 2.57566 12.6882 3.15258 12.0396L5.56258 9.63291L6.37008 8.82624C6.79315 8.40598 7.31714 8.10152 7.89175 7.94207C8.47058 7.78726 9.07997 7.78754 9.65865 7.94289C10.2373 8.09824 10.7649 8.40319 11.1884 8.82707" stroke="#EEEEE4" stroke-width="1.5" stroke-linecap="round" stroke-linejoin="round"/>
</svg>
