<svg width="24" height="25" viewBox="0 0 24 25" fill="none" xmlns="http://www.w3.org/2000/svg">
<path d="M5.47092 6.51467V19.0287C5.47079 19.386 5.54108 19.7399 5.67778 20.0701C5.81447 20.4003 6.0149 20.7003 6.26759 20.953C6.52029 21.2057 6.8203 21.4061 7.15048 21.5428C7.48067 21.6795 7.83456 21.7498 8.19192 21.7497H15.8099C16.5313 21.7497 17.2232 21.4631 17.7333 20.953C18.2434 20.4429 18.5299 19.7511 18.5299 19.0297V6.51367M3.29492 6.51467H20.7069" stroke="#141414" stroke-width="1.5" stroke-linecap="round" stroke-linejoin="round"/>
<path d="M8.73633 6.515V4.882C8.73633 4.6676 8.77857 4.4553 8.86065 4.25723C8.94273 4.05916 9.06303 3.87921 9.21468 3.72765C9.36633 3.57609 9.54636 3.4559 9.74448 3.37394C9.9426 3.29198 10.1549 3.24987 10.3693 3.25H13.6333C13.8477 3.24987 14.0601 3.29198 14.2582 3.37394C14.4563 3.4559 14.6363 3.57609 14.788 3.72765C14.9396 3.87921 15.0599 4.05916 15.142 4.25723C15.2241 4.4553 15.2663 4.6676 15.2663 4.882V6.515M9.28233 12.596H14.7203M9.28233 16.949H14.7203" stroke="#141414" stroke-width="1.5" stroke-linecap="round" stroke-linejoin="round"/>
</svg>
