<svg width="20" height="20" viewBox="0 0 20 20" fill="none" xmlns="http://www.w3.org/2000/svg">
<path d="M4.79132 7.84668H3.80631C2.98965 7.84668 2.32715 8.50835 2.32715 9.32585V16.2292C2.32715 17.0458 2.98965 17.7092 3.80631 17.7092H4.79298C5.60965 17.7092 6.27215 17.0467 6.27215 16.2292V9.32585C6.27215 8.50918 5.60965 7.84668 4.79298 7.84668" stroke="#7D7D7D" stroke-width="1.5" stroke-linecap="round" stroke-linejoin="round"/>
<path d="M17.6332 10.2029L16.4498 16.1204C16.3597 16.5746 16.1127 16.9825 15.7521 17.2729C15.3915 17.5633 14.9402 17.7176 14.4773 17.7087H8.24398C7.72084 17.7087 7.21913 17.5009 6.84922 17.131C6.4793 16.7611 6.27148 16.2594 6.27148 15.7362V9.81874C6.28738 9.43893 6.38353 9.0668 6.55359 8.72683C6.72365 8.38685 6.96377 8.08674 7.25815 7.84624L8.07648 2.91457C8.09511 2.79965 8.14059 2.69075 8.20922 2.59671C8.27786 2.50267 8.36771 2.42616 8.47148 2.37338C8.57525 2.3206 8.69001 2.29305 8.80642 2.29297C8.92284 2.29289 9.03764 2.32027 9.14148 2.3729L10.0582 2.82624C10.6641 3.12576 11.1492 3.62377 11.4327 4.23736C11.7163 4.85096 11.7811 5.54315 11.6165 6.19874L11.2032 7.83624H15.6998C15.9923 7.83614 16.2812 7.90111 16.5455 8.02644C16.8098 8.15176 17.043 8.33431 17.228 8.56085C17.4131 8.78739 17.5454 9.05225 17.6155 9.33625C17.6856 9.62025 17.6916 9.91628 17.6332 10.2029Z" stroke="#7D7D7D" stroke-width="1.5" stroke-linecap="round" stroke-linejoin="round"/>
</svg>
