<svg width="24" height="24" viewBox="0 0 24 24" fill="none" xmlns="http://www.w3.org/2000/svg">
<path d="M19.8876 7.33518C19.2649 6.19143 18.2307 5.32709 16.9946 4.91718C16.2611 4.65149 15.4965 4.48077 14.7196 4.40918C14.5303 4.74506 14.3607 5.09164 14.2116 5.44718C12.7005 5.2154 11.1628 5.2154 9.65162 5.44718C9.4964 5.09257 9.32317 4.74612 9.13262 4.40918C8.38062 4.49118 7.63962 4.65818 6.92462 4.90618C5.68009 5.31801 4.64078 6.19126 4.02062 7.34618C2.38377 10.3059 1.71579 13.7042 2.11062 17.0632C3.61555 18.1817 5.29948 19.0365 7.09062 19.5912C7.59804 19.0978 7.97706 18.4877 8.19462 17.8142C7.65462 17.6122 7.13462 17.3642 6.63762 17.0742C6.54862 16.9522 6.89162 16.7542 7.00162 16.7202C8.57224 17.4563 10.2856 17.8378 12.0201 17.8378C13.7547 17.8378 15.468 17.4563 17.0386 16.7202C17.1386 16.7202 17.4916 16.9522 17.4026 17.0742C16.9616 17.4162 15.9786 17.6592 15.8126 17.9022C16.102 18.5134 16.4738 19.082 16.9176 19.5922C18.7119 19.0367 20.3991 18.1813 21.9076 17.0622C22.2674 13.6884 21.561 10.2867 19.8876 7.33518ZM8.66862 14.7002C8.15521 14.6941 7.66508 14.4851 7.30532 14.1188C6.94555 13.7524 6.74541 13.2586 6.74862 12.7452C6.75717 12.2396 6.96251 11.7572 7.32102 11.4006C7.67953 11.0439 8.16296 10.8411 8.66862 10.8352C8.92483 10.8363 9.17828 10.8882 9.41437 10.9878C9.65045 11.0873 9.8645 11.2326 10.0442 11.4153C10.2239 11.5979 10.3656 11.8143 10.4613 12.052C10.557 12.2897 10.6047 12.544 10.6016 12.8002C10.5904 13.3063 10.3821 13.788 10.0211 14.1429C9.6601 14.4977 9.17483 14.6977 8.66862 14.7002ZM15.2936 14.7002C14.78 14.6973 14.2885 14.4911 13.9265 14.1269C13.5644 13.7626 13.3613 13.2698 13.3616 12.7562C13.3638 12.5024 13.416 12.2515 13.5152 12.0179C13.6144 11.7843 13.7586 11.5725 13.9397 11.3947C14.1207 11.2168 14.335 11.0763 14.5703 10.9813C14.8056 10.8862 15.0573 10.8384 15.3111 10.8407C15.5649 10.8429 15.8158 10.8951 16.0494 10.9943C16.283 11.0935 16.4948 11.2377 16.6726 11.4187C16.8505 11.5997 16.991 11.814 17.086 12.0494C17.1811 12.2847 17.2288 12.5364 17.2266 12.7902C17.218 13.297 17.0105 13.7801 16.6489 14.1354C16.2873 14.4906 15.8005 14.6895 15.2936 14.6892V14.7002Z" fill="#141414"/>
</svg>
