<svg width="24" height="24" viewBox="0 0 24 24" fill="none" xmlns="http://www.w3.org/2000/svg">
<path d="M22 12.0801C21.9884 14.5353 21.0738 16.9005 19.4307 18.7249C17.7876 20.5493 15.5307 21.7055 13.09 21.9731V14.8001H15.44C15.5434 14.8006 15.6434 14.7633 15.7212 14.6951C15.799 14.627 15.849 14.5327 15.862 14.4301L16.116 12.2281C16.1252 12.1703 16.1216 12.1111 16.1056 12.0548C16.0895 11.9985 16.0614 11.9464 16.0231 11.9021C15.9848 11.8579 15.9373 11.8225 15.8839 11.7984C15.8305 11.7744 15.7725 11.7624 15.714 11.7631H13.09V9.96308C13.09 9.12708 13.323 8.55608 14.518 8.55608H15.63C15.7404 8.55321 15.8454 8.50724 15.9224 8.428C15.9994 8.34877 16.0423 8.24256 16.042 8.13208V6.23808C16.0394 6.12763 15.9937 6.02259 15.9146 5.94542C15.8356 5.86824 15.7295 5.82505 15.619 5.82508H13.82C13.3147 5.78895 12.8075 5.86352 12.334 6.04359C11.8605 6.22367 11.4319 6.5049 11.0783 6.86768C10.7247 7.23045 10.4545 7.66602 10.2865 8.144C10.1186 8.62197 10.057 9.13084 10.106 9.63508V11.7511H8.339C8.28383 11.7511 8.22921 11.7621 8.17837 11.7835C8.12753 11.805 8.0815 11.8364 8.04301 11.8759C8.00451 11.9154 7.97432 11.9623 7.95422 12.0136C7.93413 12.065 7.92453 12.1199 7.926 12.1751V14.3751C7.926 14.4846 7.96951 14.5897 8.04696 14.6671C8.12442 14.7446 8.22947 14.7881 8.339 14.7881H10.106V21.8251C7.83697 21.3875 5.78953 20.1775 4.31176 18.401C2.83399 16.6244 2.01711 14.3909 2 12.0801C2 9.42791 3.05357 6.88437 4.92893 5.00901C6.8043 3.13365 9.34784 2.08008 12 2.08008C14.6522 2.08008 17.1957 3.13365 19.0711 5.00901C20.9464 6.88437 22 9.42791 22 12.0801Z" fill="#141414"/>
</svg>
