<svg width="24" height="24" viewBox="0 0 24 24" fill="none" xmlns="http://www.w3.org/2000/svg">
<path d="M7.375 16.0469H16.625M21.25 9.88294V17.5809C21.25 18.3986 20.9252 19.1828 20.347 19.761C19.7688 20.3391 18.9847 20.6639 18.167 20.6639H5.833C5.01534 20.6639 4.23116 20.3391 3.65299 19.761C3.07482 19.1828 2.75 18.3986 2.75 17.5809V6.41894C2.75 5.60128 3.07482 4.8171 3.65299 4.23893C4.23116 3.66075 5.01534 3.33594 5.833 3.33594H8.917C9.42573 3.3356 9.92664 3.46117 10.3751 3.70143C10.8235 3.94169 11.2055 4.28919 11.487 4.71294L12.36 6.03894C12.5201 6.27606 12.7359 6.47028 12.9885 6.60453C13.2412 6.73878 13.5229 6.80897 13.809 6.80894H18.167C18.983 6.8092 19.7657 7.13286 20.3435 7.70904C20.9214 8.28521 21.2474 9.06692 21.25 9.88294Z" stroke="#141414" stroke-width="1.5" stroke-linecap="round" stroke-linejoin="round"/>
<path d="M11.5166 4.72283L18.4436 3.61283C18.6635 3.57689 18.8886 3.58936 19.1031 3.64939C19.3177 3.70942 19.5166 3.81555 19.6859 3.96038C19.8552 4.10521 19.9908 4.28525 20.0834 4.48793C20.1759 4.69061 20.2231 4.91104 20.2216 5.13383V7.59084" stroke="#141414" stroke-width="1.5" stroke-linecap="round" stroke-linejoin="round"/>
</svg>
