<svg width="24" height="24" viewBox="0 0 24 24" fill="none" xmlns="http://www.w3.org/2000/svg">
<path d="M10.94 18.3385L7.51 20.8865C7.26537 21.078 6.9732 21.1992 6.66487 21.2372C6.35654 21.2751 6.0437 21.2283 5.75995 21.1019C5.4762 20.9754 5.23225 20.7741 5.05432 20.5194C4.87638 20.2648 4.77118 19.9665 4.75 19.6565V6.34953C4.7678 5.8592 4.88203 5.37718 5.08617 4.93101C5.29031 4.48484 5.58037 4.08326 5.93976 3.74923C6.29915 3.41519 6.72083 3.15523 7.18072 2.98422C7.6406 2.8132 8.12968 2.73447 8.62 2.75253H15.38C16.3698 2.71793 17.3329 3.07711 18.0583 3.75134C18.7837 4.42558 19.2122 5.35989 19.25 6.34953V19.6585C19.2293 19.9687 19.1244 20.2673 18.9465 20.5223C18.7686 20.7772 18.5245 20.9788 18.2406 21.1052C17.9566 21.2317 17.6435 21.2782 17.335 21.2399C17.0265 21.2015 16.7344 21.0797 16.49 20.8875L13.06 18.3395C12.752 18.1153 12.3809 17.9946 12 17.9946C11.6191 17.9946 11.248 18.1143 10.94 18.3385Z" stroke="#141414" stroke-width="1.5" stroke-linecap="round" stroke-linejoin="round"/>
</svg>
