<svg width="24" height="24" viewBox="0 0 24 24" fill="none" xmlns="http://www.w3.org/2000/svg">
<path d="M12.948 7.30832L7.42001 12.8353C6.93095 13.3245 6.65625 13.9879 6.65634 14.6797C6.65644 15.3714 6.93131 16.0348 7.42051 16.5238C7.9097 17.0129 8.57313 17.2876 9.26486 17.2875C9.95659 17.2874 10.6199 17.0125 11.109 16.5233L17.091 10.5413C17.5164 10.1186 17.8539 9.61601 18.0843 9.06236C18.3146 8.50871 18.4332 7.91498 18.4332 7.31532C18.4332 6.71567 18.3146 6.12193 18.0843 5.56829C17.8539 5.01464 17.5164 4.51201 17.091 4.08932C16.2308 3.25494 15.076 2.79373 13.8776 2.8059C12.6793 2.81807 11.5341 3.30264 10.691 4.15432L4.65701 10.0723C3.47616 11.3027 2.8246 12.9468 2.84214 14.6521C2.85968 16.3573 3.54492 17.9877 4.75083 19.1935C5.95674 20.3993 7.58724 21.0843 9.29247 21.1017C10.9977 21.119 12.6418 20.4673 13.872 19.2863L21.249 11.9743" stroke="#141414" stroke-linecap="round" stroke-linejoin="round"/>
</svg>
