<svg width="24" height="24" viewBox="0 0 24 24" fill="none" xmlns="http://www.w3.org/2000/svg">
<path d="M12.1321 15.4038C12.5738 15.4038 13.0113 15.3168 13.4194 15.1477C13.8276 14.9787 14.1984 14.7309 14.5108 14.4185C14.8231 14.1061 15.0709 13.7353 15.24 13.3271C15.4091 12.919 15.4961 12.4815 15.4961 12.0398C15.4961 11.598 15.4091 11.1606 15.24 10.7524C15.0709 10.3443 14.8231 9.97345 14.5108 9.66107C14.1984 9.3487 13.8276 9.10091 13.4194 8.93185C13.0113 8.76279 12.5738 8.67578 12.1321 8.67578C11.2399 8.67578 10.3842 9.0302 9.75336 9.66107C9.12249 10.2919 8.76807 11.1476 8.76807 12.0398C8.76807 12.932 9.12249 13.7876 9.75336 14.4185C10.3842 15.0494 11.2399 15.4038 12.1321 15.4038Z" stroke="#5A5A5A" stroke-width="1.5" stroke-linecap="round" stroke-linejoin="round"/>
<path d="M20.9831 15.094C20.5862 16.2331 19.9745 17.2855 19.1811 18.194L17.0571 17.712C16.2516 18.4347 15.2945 18.9677 14.2561 19.272L13.6821 21.351C13.1441 21.4477 12.5987 21.4975 12.0521 21.5C11.3683 21.4998 10.6867 21.4227 10.0201 21.27L9.41109 19.124C8.5032 18.79 7.66877 18.283 6.95409 17.631L4.85409 18.171C4.02026 17.1985 3.39501 16.0651 3.01709 14.841L4.56709 13.119C4.4253 12.2384 4.4487 11.3391 4.63609 10.467L3.10709 8.87202C3.55035 7.62034 4.25496 6.47735 5.17409 5.51902L7.34409 6.05902C7.94145 5.57969 8.60715 5.1924 9.31909 4.91002L9.89309 2.78602C10.6018 2.60129 11.3307 2.50489 12.0631 2.49902C12.6481 2.49902 13.2331 2.55302 13.8081 2.65902L14.3591 4.77202C15.1891 5.04102 15.9671 5.45202 16.6551 5.98902L18.8371 5.42602C19.7181 6.31271 20.4127 7.36674 20.8801 8.52602L19.4001 10.133C19.6806 11.2343 19.7039 12.3853 19.4681 13.497L20.9831 15.094Z" stroke="#5A5A5A" stroke-width="1.5" stroke-linecap="round" stroke-linejoin="round"/>
</svg>
