<svg width="20" height="20" viewBox="0 0 20 20" fill="none" xmlns="http://www.w3.org/2000/svg">
<path d="M14.2837 2.52051H5.71699C4.64354 2.52271 3.61469 2.95011 2.85564 3.70916C2.0966 4.4682 1.66919 5.49706 1.66699 6.57051V13.4288C1.66919 14.5023 2.0966 15.5311 2.85564 16.2902C3.61469 17.0492 4.64354 17.4766 5.71699 17.4788H14.2837C15.3571 17.4766 16.386 17.0492 17.145 16.2902C17.9041 15.5311 18.3315 14.5023 18.3337 13.4288V6.57051C18.3315 5.49706 17.9041 4.4682 17.145 3.70916C16.386 2.95011 15.3571 2.52271 14.2837 2.52051ZM9.46699 14.2622H5.18366C4.96264 14.2622 4.75068 14.1744 4.5944 14.0181C4.43812 13.8618 4.35033 13.6499 4.35033 13.4288C4.35033 13.2078 4.43812 12.9959 4.5944 12.8396C4.75068 12.6833 4.96264 12.5955 5.18366 12.5955H9.46699C9.68801 12.5955 9.89997 12.6833 10.0562 12.8396C10.2125 12.9959 10.3003 13.2078 10.3003 13.4288C10.3003 13.6499 10.2125 13.8618 10.0562 14.0181C9.89997 14.1744 9.68801 14.2622 9.46699 14.2622ZM17.0837 6.80384H2.91699V6.57051C2.91919 5.82858 3.2149 5.11766 3.73952 4.59304C4.26415 4.06841 4.97506 3.77271 5.71699 3.77051H14.2837C15.0256 3.77271 15.7365 4.06841 16.2611 4.59304C16.7858 5.11766 17.0815 5.82858 17.0837 6.57051V6.80384Z" fill="#7D7D7D"/>
</svg>
