<svg width="20" height="20" viewBox="0 0 20 20" fill="none" xmlns="http://www.w3.org/2000/svg">
<path d="M15.2724 6.07227H8.56902C8.14216 6.07381 7.73339 6.2448 7.43258 6.54765C7.13176 6.8505 6.96352 7.26041 6.96485 7.68727V16.0939C6.96485 16.9856 7.68319 17.7089 8.56902 17.7089H15.2724C15.6992 17.7074 16.108 17.5364 16.4088 17.2335C16.7096 16.9307 16.8778 16.5208 16.8765 16.0939V7.68727C16.8765 6.7956 16.1582 6.07227 15.2724 6.07227Z" stroke="#7D7D7D" stroke-width="1.5" stroke-linecap="round" stroke-linejoin="round"/>
<path d="M13.0347 6.07199V3.90699C13.0347 3.47866 12.8655 3.06783 12.5647 2.76533C12.4163 2.61549 12.2396 2.49653 12.0449 2.41529C11.8503 2.33406 11.6415 2.29215 11.4305 2.29199H4.72721C4.30221 2.29199 3.89388 2.46199 3.59388 2.76533C3.29243 3.06884 3.12319 3.47922 3.12305 3.90699V12.3137C3.12305 12.742 3.29221 13.1528 3.59305 13.4553C3.89388 13.7587 4.30138 13.9287 4.72721 13.9287H6.96471" stroke="#7D7D7D" stroke-width="1.5" stroke-linecap="round" stroke-linejoin="round"/>
</svg>
