<svg width="24" height="24" viewBox="0 0 24 24" fill="none" xmlns="http://www.w3.org/2000/svg">
<path d="M19.6329 7.10974L13.1589 3.08974C12.8047 2.86836 12.3955 2.75098 11.9779 2.75098C11.5602 2.75098 11.151 2.86836 10.7969 3.08974L4.32388 7.13274C3.95564 7.36465 3.66339 7.69932 3.48319 8.09544C3.30299 8.49155 3.24274 8.93177 3.30988 9.36174L4.97988 19.3887C5.06777 19.9138 5.34078 20.3901 5.74947 20.7313C6.15817 21.0725 6.67553 21.256 7.20788 21.2487H16.7899C17.3223 21.2561 17.8398 21.0725 18.2487 20.7314C18.6576 20.3902 18.9308 19.9139 19.0189 19.3887L20.6889 9.36174C20.7563 8.92386 20.6917 8.47582 20.5032 8.07486C20.3148 7.6739 20.0111 7.33823 19.6309 7.11074M8.63588 16.4587H15.3209" stroke="#141414" stroke-width="1.5" stroke-linecap="round" stroke-linejoin="round"/>
</svg>
