<svg width="15" height="15" viewBox="0 0 15 15" fill="none" xmlns="http://www.w3.org/2000/svg">
<g clip-path="url(#clip0_2_1626)">
<path d="M11.9316 9.02589V11.8009C11.9315 12.1935 11.7754 12.57 11.4978 12.8477C11.2201 13.1253 10.8436 13.2813 10.451 13.2815H3.20038C3.00522 13.2814 2.81201 13.2428 2.63184 13.1678C2.45166 13.0928 2.28808 12.983 2.1505 12.8446C2.01291 12.7062 1.90403 12.5419 1.83011 12.3613C1.75619 12.1807 1.71868 11.9873 1.71975 11.7921V4.54964C1.71859 4.35479 1.75611 4.16165 1.83014 3.98141C1.90417 3.80118 2.01323 3.63742 2.15101 3.49964C2.28879 3.36187 2.45254 3.2528 2.63278 3.17877C2.81302 3.10475 3.00616 3.06722 3.201 3.06839H5.97538" stroke="#141414" stroke-width="1.5" stroke-linecap="round" stroke-linejoin="round"/>
<path d="M11.9318 5.62179L9.37871 3.06804M4.27246 9.87679V8.52366C4.27371 8.30054 4.36246 8.08616 4.51934 7.92804L10.4768 1.97054C10.556 1.89075 10.6501 1.82743 10.7538 1.78421C10.8576 1.741 10.9688 1.71875 11.0812 1.71875C11.1936 1.71875 11.3048 1.741 11.4086 1.78421C11.5123 1.82743 11.6065 1.89075 11.6856 1.97054L13.03 3.31491C13.1099 3.39396 13.1734 3.48808 13.2167 3.59182C13.26 3.69556 13.2823 3.80687 13.2823 3.91929C13.2823 4.03171 13.26 4.14301 13.2167 4.24675C13.1734 4.35049 13.1099 4.44461 13.03 4.52366L7.07246 10.4812C6.91401 10.6384 6.70008 10.7271 6.47684 10.728H5.12371C4.89795 10.728 4.68143 10.6384 4.52179 10.4787C4.36215 10.3191 4.27246 10.1026 4.27246 9.87679Z" stroke="#141414" stroke-width="1.5" stroke-linecap="round" stroke-linejoin="round"/>
</g>
<defs>
<clipPath id="clip0_2_1626">
<rect width="15" height="15" fill="white"/>
</clipPath>
</defs>
</svg>
