<svg width="24" height="24" viewBox="0 0 24 24" fill="none" xmlns="http://www.w3.org/2000/svg">
<path d="M19.1937 9.07897V7.82097C19.1937 7.28297 18.9777 6.76697 18.5917 6.38697C18.2041 6.00589 17.6822 5.79253 17.1387 5.79297H6.85969C6.31615 5.79253 5.79425 6.00589 5.40669 6.38697C5.02069 6.76697 4.80469 7.28297 4.80469 7.82097V9.07997" stroke="#141414" stroke-width="1.5" stroke-linecap="round" stroke-linejoin="round"/>
<path d="M6.861 5.793V4.779C6.861 4.241 7.078 3.725 7.463 3.344C7.85081 2.96268 8.37312 2.7493 8.917 2.75H15.083C15.6269 2.7493 16.1492 2.96268 16.537 3.344C16.922 3.724 17.139 4.241 17.139 4.779V5.793M17.92 8.836H6.08C4.24 8.836 2.75 10.306 2.75 12.122V17.964C2.75 19.779 4.24 21.25 6.08 21.25H17.92C19.76 21.25 21.25 19.779 21.25 17.964V12.122C21.25 10.307 19.76 8.836 17.92 8.836Z" stroke="#141414" stroke-width="1.5" stroke-linecap="round" stroke-linejoin="round"/>
<path d="M7.88867 12.8926V13.9066C7.88867 14.4446 8.10467 14.9606 8.49067 15.3406C8.87567 15.7206 9.39867 15.9346 9.94367 15.9346H14.0557C14.5992 15.935 15.1211 15.7217 15.5087 15.3406C15.8947 14.9606 16.1107 14.4446 16.1107 13.9066V12.8926" stroke="#141414" stroke-width="1.5" stroke-linecap="round" stroke-linejoin="round"/>
</svg>
