<svg width="24" height="24" viewBox="0 0 24 24" fill="none" xmlns="http://www.w3.org/2000/svg">
<path d="M13.794 2.64242C18.474 3.54242 21.654 7.59642 21.494 12.4154C21.347 16.8594 17.752 20.7334 13.224 21.2884C11.4055 21.5182 9.55936 21.2196 7.906 20.4284C7.64154 20.3136 7.34767 20.285 7.066 20.3464C5.71 20.6714 4.365 21.0404 3.016 21.3914C2.868 21.4294 2.716 21.4554 2.5 21.5004C2.905 20.0184 3.283 18.5964 3.687 17.1804C3.79 16.8224 3.761 16.5364 3.596 16.1854C2.021 12.8404 2.158 9.55842 4.304 6.52542C6.455 3.48342 9.491 2.18542 13.224 2.56542C13.4 2.58242 13.575 2.60742 13.794 2.64242ZM19.708 13.6464C19.976 12.5504 20.008 11.4394 19.746 10.3484C18.958 7.06042 16.912 4.92942 13.586 4.25542C10.323 3.59542 7.583 4.69542 5.65 7.39342C3.714 10.0954 3.672 12.9934 5.27 15.8964C5.475 16.2694 5.53 16.5764 5.405 16.9744C5.177 17.7024 5 18.4464 4.777 19.2724C5.702 19.0324 6.513 18.8024 7.335 18.6224C7.568 18.5714 7.873 18.5984 8.077 18.7104C12.773 21.2954 18.355 18.9104 19.708 13.6464Z" fill="#141414"/>
<path d="M9.74497 8.1581C9.92397 8.5851 10.045 8.9981 10.255 9.3611C10.555 9.8791 10.464 10.3141 10.05 10.6791C9.60497 11.0711 9.67097 11.4041 9.98997 11.8541C10.725 12.8901 11.648 13.6671 12.813 14.1761C13.133 14.3161 13.376 14.3401 13.583 14.0191C13.669 13.8871 13.789 13.7791 13.889 13.6551C14.472 12.9291 14.289 12.9351 15.213 13.3361C15.504 13.4631 15.795 13.5981 16.064 13.7641C16.334 13.9291 16.744 14.0991 16.796 14.3341C16.914 14.8541 16.748 15.3821 16.314 15.7681C15.514 16.4801 14.594 16.5981 13.589 16.3201C11.415 15.7201 9.74297 14.4161 8.46197 12.6101C8.00997 11.9731 7.60597 11.2661 7.35197 10.5321C7.04397 9.6381 7.26197 8.7761 7.89797 8.0191C8.27297 7.5741 8.72797 7.4741 9.22297 7.5931C9.42197 7.6411 9.56097 7.9371 9.74497 8.1581Z" fill="#141414"/>
</svg>
