<svg width="20" height="20" viewBox="0 0 20 20" fill="none" xmlns="http://www.w3.org/2000/svg">
<path d="M4.79132 2.29102H3.80631C2.98965 2.29102 2.32715 2.95352 2.32715 3.77102V10.6743C2.32715 11.491 2.98965 12.1535 3.80631 12.1535H4.79298C5.60965 12.1535 6.27215 11.4918 6.27215 10.6743V3.77102C6.27215 2.95435 5.60965 2.29102 4.79298 2.29102" stroke="#7D7D7D" stroke-width="1.5" stroke-linecap="round" stroke-linejoin="round"/>
<path d="M17.6332 9.7972L16.4498 3.8797C16.3596 3.42562 16.1126 3.01773 15.752 2.72737C15.3914 2.43701 14.9402 2.28268 14.4773 2.29136H8.24398C7.72084 2.29136 7.21913 2.49918 6.84922 2.8691C6.4793 3.23901 6.27148 3.74072 6.27148 4.26386V10.1814C6.28738 10.5612 6.38353 10.9333 6.55359 11.2733C6.72365 11.6132 6.96377 11.9134 7.25815 12.1539L8.07648 17.0855C8.09494 17.2005 8.14032 17.3096 8.20892 17.4037C8.27752 17.4978 8.36739 17.5744 8.47122 17.6272C8.57504 17.68 8.68987 17.7076 8.80635 17.7076C8.92284 17.7075 9.03767 17.68 9.14148 17.6272L10.0582 17.1747C10.6642 16.875 11.1493 16.3769 11.4328 15.7631C11.7163 15.1494 11.7812 14.4571 11.6165 13.8014L11.2032 12.1639H15.6998C15.9923 12.1638 16.2811 12.0987 16.5453 11.9734C16.8096 11.848 17.0426 11.6654 17.2277 11.4389C17.4127 11.2124 17.545 10.9476 17.6152 10.6637C17.6853 10.3798 17.6914 10.0838 17.6332 9.7972Z" stroke="#7D7D7D" stroke-width="1.5" stroke-linecap="round" stroke-linejoin="round"/>
</svg>
