<svg width="10" height="10" viewBox="0 0 10 10" fill="none" xmlns="http://www.w3.org/2000/svg">
<path d="M7.24167 3.79128V3.12878C7.25822 2.7502 7.1785 2.3736 7.00996 2.03421C6.84141 1.69481 6.58955 1.4037 6.27793 1.1881C5.9663 0.972492 5.60509 0.839437 5.22806 0.801373C4.85104 0.763309 4.47052 0.821479 4.12208 0.970444C3.70293 1.14935 3.34827 1.45176 3.10536 1.83737C2.86246 2.22298 2.74286 2.67346 2.7625 3.12878V3.79128C2.44379 3.81566 2.14524 3.95661 1.92387 4.1872C1.70251 4.41778 1.57386 4.72184 1.5625 5.04128V7.93294C1.57339 8.28146 1.72208 8.61143 1.97594 8.85045C2.22981 9.08948 2.56813 9.21805 2.91667 9.20794H7.08333C7.43187 9.21805 7.77019 9.08948 8.02406 8.85045C8.27792 8.61143 8.42661 8.28146 8.4375 7.93294V5.04128C8.42624 4.7225 8.29818 4.41899 8.07768 4.1885C7.85718 3.95801 7.55963 3.81664 7.24167 3.79128ZM3.3875 3.12878C3.38643 2.91678 3.4275 2.70668 3.50833 2.51069C3.58916 2.3147 3.70813 2.13672 3.85833 1.98711C4.16168 1.6849 4.57181 1.51426 5 1.51211C5.42843 1.51321 5.83899 1.68389 6.14194 1.98684C6.44489 2.28978 6.61557 2.70035 6.61667 3.12878V3.77878H3.3875V3.12878ZM6.44583 7.87878H3.57083C3.46033 7.87878 3.35435 7.83488 3.27621 7.75674C3.19807 7.6786 3.15417 7.57262 3.15417 7.46211C3.15417 7.3516 3.19807 7.24562 3.27621 7.16748C3.35435 7.08934 3.46033 7.04544 3.57083 7.04544H6.4625C6.57301 7.04544 6.67899 7.08934 6.75713 7.16748C6.83527 7.24562 6.87917 7.3516 6.87917 7.46211C6.87917 7.57262 6.83527 7.6786 6.75713 7.75674C6.67899 7.83488 6.57301 7.87878 6.4625 7.87878H6.44583Z" fill="#7D7D7D"/>
</svg>
