<svg width="31" height="31" viewBox="0 0 31 31" fill="none" xmlns="http://www.w3.org/2000/svg">
<path d="M15.2675 9.7452V17.5914M13.2325 5.8502L3.71375 22.3414C3.50702 22.6998 3.39827 23.1062 3.39844 23.5199C3.3986 23.9336 3.50767 24.3399 3.71469 24.6981C3.9217 25.0562 4.21936 25.3536 4.57774 25.5602C4.93611 25.7668 5.34258 25.8755 5.75625 25.8752H24.7913C25.2048 25.8753 25.6111 25.7665 25.9693 25.5597C26.3275 25.353 26.625 25.0556 26.8319 24.6975C27.0388 24.3394 27.1477 23.9331 27.1478 23.5196C27.1479 23.106 27.0392 22.6997 26.8325 22.3414L17.315 5.8502C17.1083 5.49168 16.8108 5.19394 16.4525 4.98692C16.0941 4.77989 15.6876 4.6709 15.2738 4.6709C14.8599 4.6709 14.4534 4.77989 14.095 4.98692C13.7367 5.19394 13.4392 5.49168 13.2325 5.8502Z" stroke="white" stroke-width="2.18182" stroke-linecap="round" stroke-linejoin="round"/>
<path d="M15.3277 21.9307H15.3164" stroke="white" stroke-width="2.90909" stroke-linecap="round" stroke-linejoin="round"/>
</svg>
