<svg width="24" height="24" viewBox="0 0 24 24" fill="none" xmlns="http://www.w3.org/2000/svg">
<path d="M18.713 5.27847C17.8309 4.39406 16.783 3.69231 15.6293 3.21336C14.4757 2.73442 13.2389 2.48769 11.9898 2.48731C10.7406 2.48692 9.5037 2.73288 8.34975 3.2111C7.19579 3.68933 6.14748 4.39044 5.2648 5.27429C4.38213 6.15815 3.68243 7.2074 3.20575 8.362C2.72907 9.51659 2.48477 10.7539 2.48683 12.003C2.48889 13.2521 2.73727 14.4886 3.21776 15.6416C3.69825 16.7946 4.40141 17.8415 5.287 18.7225C7.07099 20.4971 9.48617 21.4914 12.0025 21.4873C14.5188 21.4831 16.9307 20.4808 18.7088 18.7003C20.487 16.9198 21.486 14.5066 21.4868 11.9903C21.4876 9.47393 20.49 7.06008 18.713 5.27847ZM18.713 5.27847L14.977 9.01547M18.713 18.7055L14.977 14.9685M9.023 14.9685L5.287 18.7055M9.023 9.01547L5.287 5.27847M12 16.2145C10.8801 16.2135 9.80648 15.7678 9.01526 14.9753C8.22405 14.1827 7.78007 13.1083 7.781 11.9885C7.78193 10.8686 8.22769 9.79495 9.02021 9.00373C9.81274 8.21252 10.8871 7.76854 12.007 7.76947C13.1269 7.7704 14.2005 8.21616 14.9917 9.00868C15.7829 9.80121 16.2269 10.8756 16.226 11.9955C16.2251 13.1153 15.7793 14.189 14.9868 14.9802C14.1943 15.7714 13.1199 16.2154 12 16.2145Z" stroke="#5A5A5A" stroke-width="1.5" stroke-linecap="round" stroke-linejoin="round"/>
</svg>
