<svg width="24" height="25" viewBox="0 0 24 25" fill="none" xmlns="http://www.w3.org/2000/svg">
<path d="M10.783 19.3277C12.3739 19.3297 13.9297 18.8601 15.2538 17.9781C16.5779 17.0962 17.6108 15.8415 18.222 14.3727C18.8327 12.9038 18.9937 11.2868 18.6845 9.7264C18.3752 8.16602 17.6097 6.73255 16.485 5.60766C15.3605 4.48261 13.9277 3.71618 12.3677 3.40522C10.8077 3.09426 9.19052 3.25274 7.72057 3.86063C6.25062 4.46852 4.99387 5.49852 4.10915 6.82047C3.22443 8.14242 2.75145 9.69697 2.75 11.2877C2.75 13.4187 3.596 15.4617 5.102 16.9687C6.60823 18.4762 8.65098 19.3245 10.782 19.3277M16.488 16.9907L21.25 21.7497" stroke="#141414" stroke-width="1.5" stroke-linecap="round" stroke-linejoin="round"/>
</svg>
