<svg width="24" height="24" viewBox="0 0 24 24" fill="none" xmlns="http://www.w3.org/2000/svg">
<path d="M12 8V12L14.5 14.5" stroke="#141414" stroke-width="1.5" stroke-linecap="round" stroke-linejoin="round"/>
<path d="M4.33797 6.87113L3.58798 6.87413C3.58876 7.07183 3.66758 7.26123 3.80728 7.40112C3.94699 7.54101 4.13628 7.62008 4.33398 7.62113L4.33797 6.87113ZM6.87998 7.63313C6.97847 7.63359 7.07608 7.61465 7.16725 7.57738C7.25842 7.54012 7.34136 7.48526 7.41133 7.41594C7.4813 7.34662 7.53693 7.2642 7.57505 7.17338C7.61316 7.08256 7.63302 6.98512 7.63348 6.88663C7.63393 6.78814 7.61499 6.69052 7.57772 6.59935C7.54046 6.50818 7.4856 6.42525 7.41628 6.35528C7.34696 6.28531 7.26454 6.22968 7.17372 6.19156C7.0829 6.15345 6.98547 6.13359 6.88698 6.13313L6.87998 7.63313ZM5.07497 4.32113C5.07445 4.22264 5.05453 4.12522 5.01635 4.03442C4.97818 3.94363 4.92249 3.86125 4.85248 3.79197C4.78246 3.7227 4.69949 3.6679 4.60829 3.63069C4.5171 3.59349 4.41947 3.57461 4.32098 3.57513C4.22248 3.57566 4.12506 3.59558 4.03427 3.63375C3.94347 3.67193 3.86109 3.72762 3.79182 3.79763C3.72254 3.86765 3.66774 3.95062 3.63053 4.04182C3.59333 4.13301 3.57445 4.23064 3.57498 4.32913L5.07497 4.32113ZM3.82697 10.7851C3.84135 10.6871 3.83615 10.5872 3.8117 10.4912C3.78725 10.3952 3.74402 10.305 3.6845 10.2258C3.62499 10.1466 3.55038 10.08 3.46497 10.0298C3.37957 9.97957 3.28506 9.94678 3.18691 9.93331C3.08876 9.91984 2.98892 9.92594 2.89314 9.95127C2.79737 9.9766 2.70756 10.0207 2.62891 10.0809C2.55025 10.1411 2.48431 10.2163 2.43489 10.3022C2.38547 10.3881 2.35355 10.4829 2.34098 10.5811L3.82697 10.7851ZM18.862 5.13813C15.042 1.31813 8.86897 1.27813 5.07397 5.07413L6.13397 6.13413C9.33397 2.93513 14.557 2.95413 17.802 6.19813L18.862 5.13813ZM5.13797 18.8621C8.95797 22.6821 15.131 22.7221 18.926 18.9261L17.866 17.8661C14.666 21.0651 9.44297 21.0461 6.19797 17.8021L5.13797 18.8621ZM18.926 18.9261C22.721 15.1311 22.682 8.95813 18.862 5.13813L17.802 6.19813C21.046 9.44313 21.065 14.6661 17.866 17.8661L18.926 18.9261ZM5.07397 5.07413L3.80698 6.34013L4.86797 7.40013L6.13397 6.13413L5.07397 5.07413ZM4.33398 7.62113L6.87998 7.63313L6.88698 6.13313L4.34197 6.12113L4.33398 7.62113ZM5.08797 6.86713L5.07497 4.32113L3.57498 4.32913L3.58798 6.87413L5.08797 6.86713ZM2.33997 10.5801C2.13452 12.0827 2.28015 13.6125 2.76545 15.0493C3.25076 16.4861 4.06251 17.7909 5.13698 18.8611L6.19697 17.8011C5.2862 16.8944 4.59808 15.7889 4.18668 14.5713C3.77528 13.3538 3.65181 12.0574 3.82598 10.7841L2.33997 10.5801Z" fill="#141414"/>
</svg>
