<svg width="20" height="20" viewBox="0 0 20 20" fill="none" xmlns="http://www.w3.org/2000/svg">
<g clip-path="url(#clip0_1_14550)">
<path d="M6.7853 0.713867L3.21387 4.2853L6.7853 7.85672" stroke="#7D7D7D" stroke-width="1.5" stroke-linecap="round" stroke-linejoin="round"/>
<path d="M2.5 11.7852C2.5 13.2685 2.93987 14.7186 3.76398 15.9519C4.58809 17.1853 5.75943 18.1466 7.12987 18.7143C8.50032 19.2819 10.0083 19.4304 11.4632 19.141C12.918 18.8517 14.2544 18.1374 15.3033 17.0885C16.3522 16.0396 17.0665 14.7032 17.3559 13.2483C17.6453 11.7935 17.4968 10.2855 16.9291 8.91503C16.3614 7.54458 15.4001 6.37324 14.1668 5.54913C12.9334 4.72502 11.4834 4.28516 10 4.28516H3.21429" stroke="#7D7D7D" stroke-width="1.5" stroke-linecap="round" stroke-linejoin="round"/>
</g>
<defs>
<clipPath id="clip0_1_14550">
<rect width="20" height="20" fill="white"/>
</clipPath>
</defs>
</svg>
