<svg width="25" height="24" viewBox="0 0 25 24" fill="none" xmlns="http://www.w3.org/2000/svg">
<path d="M12.1729 7.22161C11.2969 7.22161 9.94089 6.22561 8.51289 6.26161C6.62889 6.28561 4.90089 7.35361 3.92889 9.04561C1.97289 12.4416 3.42489 17.4576 5.33289 20.2176C6.26889 21.5616 7.37289 23.0736 8.83689 23.0256C10.2409 22.9656 10.7689 22.1136 12.4729 22.1136C14.1649 22.1136 14.6449 23.0256 16.1329 22.9896C17.6449 22.9656 18.6049 21.6216 19.5289 20.2656C20.5969 18.7056 21.0409 17.1936 21.0649 17.1096C21.0289 17.0976 18.1249 15.9816 18.0889 12.6216C18.0649 9.81361 20.3809 8.46961 20.4889 8.40961C19.1689 6.47761 17.1409 6.26161 16.4329 6.21361C14.5849 6.06961 13.0369 7.22161 12.1729 7.22161ZM15.2929 4.38961C16.0729 3.45361 16.5889 2.14561 16.4449 0.849609C15.3289 0.897609 13.9849 1.59361 13.1809 2.52961C12.4609 3.35761 11.8369 4.68961 12.0049 5.96161C13.2409 6.05761 14.5129 5.32561 15.2929 4.38961Z" fill="white"/>
</svg>
