<svg width="35" height="35" viewBox="0 0 35 35" fill="none" xmlns="http://www.w3.org/2000/svg">
<path d="M14.4617 2.84797C14.5148 2.84781 14.5148 2.84781 14.5689 2.84766C14.6072 2.84772 14.6456 2.84779 14.6851 2.84786C14.7243 2.84782 14.7636 2.84779 14.804 2.84776C14.8871 2.84774 14.9702 2.8478 15.0534 2.84793C15.1808 2.84811 15.3083 2.84794 15.4357 2.84773C15.5163 2.84775 15.5969 2.84779 15.6776 2.84786C15.7158 2.84779 15.7541 2.84772 15.7936 2.84766C15.8468 2.84781 15.8468 2.84781 15.9011 2.84797C15.9479 2.848 15.9479 2.848 15.9958 2.84804C16.0747 2.85216 16.0747 2.85216 16.1719 2.88457C16.2434 2.89182 16.315 2.89845 16.3866 2.90482C17.1869 2.99131 17.9723 3.20965 18.7321 3.4679C18.7607 3.47758 18.7893 3.48726 18.8188 3.49724C19.6715 3.78985 20.4971 4.17108 21.2908 4.59722C21.4204 4.66665 21.5515 4.7331 21.6832 4.79863C21.7154 4.81463 21.7154 4.81463 21.7482 4.83096C21.8326 4.87286 21.917 4.91464 22.0014 4.95641C22.3129 5.11057 22.6214 5.26977 22.9292 5.43105C23.1263 5.5342 23.3244 5.63514 23.5238 5.73382C23.7497 5.84604 23.9727 5.96363 24.196 6.08065C24.4366 6.2065 24.6783 6.32949 24.9219 6.44938C24.9112 6.47077 24.9005 6.49216 24.8895 6.5142C24.5636 6.46311 24.2406 6.39912 23.9173 6.33393C23.8606 6.32256 23.804 6.3112 23.7474 6.29984C23.2886 6.20766 22.8302 6.11365 22.3718 6.01947C21.9778 5.93856 21.5837 5.85918 21.1884 5.78488C21.0562 5.75998 20.9248 5.73417 20.7939 5.703C20.6082 5.66102 20.42 5.64179 20.2309 5.62097C20.1956 5.61689 20.1603 5.61282 20.1238 5.60862C19.688 5.55942 19.2575 5.53533 18.8192 5.5359C18.7936 5.53591 18.768 5.53592 18.7417 5.53592C18.3342 5.53657 17.9311 5.5516 17.5258 5.59682C17.4342 5.60697 17.3425 5.61588 17.2508 5.62476C15.9892 5.75568 14.7634 6.14807 13.6441 6.74105C13.6225 6.75245 13.6009 6.76385 13.5787 6.77559C13.1487 7.00467 12.7601 7.27878 12.3802 7.58364C12.3509 7.60699 12.3215 7.63035 12.2912 7.65441C12.1341 7.78087 11.9847 7.90902 11.8448 8.05431C11.7969 8.10216 11.7969 8.10216 11.7159 8.16495C11.6235 8.2412 11.5504 8.32517 11.4728 8.41623C11.4026 8.49725 11.3295 8.57492 11.2561 8.65308C10.4895 9.4885 10.4895 9.4885 10.1314 10.4974C10.1312 10.5192 10.131 10.5409 10.1308 10.5634C10.1303 10.6358 10.1305 10.7083 10.1306 10.7807C10.1304 10.8329 10.1301 10.885 10.1298 10.9371C10.129 11.0785 10.1289 11.2198 10.1288 11.3612C10.1286 11.5094 10.1279 11.6577 10.1272 11.8059C10.1259 12.0869 10.1251 12.3679 10.1245 12.6489C10.1234 13.1514 10.1216 13.6539 10.1195 14.1565C10.1188 14.3326 10.1183 14.5088 10.118 14.685C10.1178 14.795 10.1174 14.905 10.1171 15.015C10.1169 15.0657 10.1168 15.1164 10.1168 15.1671C10.1166 15.4386 10.1107 15.7071 10.0793 15.9772C10.7619 15.982 11.4445 15.9846 12.1271 15.9846C12.444 15.9847 12.761 15.9854 13.0779 15.9879C13.3543 15.9901 13.6307 15.9909 13.907 15.9901C14.0533 15.9897 14.1995 15.9899 14.3457 15.9919C14.4837 15.9937 14.6214 15.9936 14.7593 15.9922C14.8097 15.992 14.8601 15.9924 14.9105 15.9936C15.212 16.0007 15.212 16.0007 15.4688 15.8592C15.5606 15.7645 15.6384 15.6608 15.7182 15.5559C15.8074 15.4692 15.8979 15.385 16.0099 15.329C16.0206 12.6126 16.0313 9.89623 16.0423 7.09753C17.2828 7.09686 18.5234 7.09619 19.8015 7.0955C20.1894 7.09521 20.5772 7.09491 20.9768 7.09461C21.4603 7.09446 21.4603 7.09446 21.6885 7.09444C21.8437 7.09441 21.999 7.09429 22.1542 7.09411C22.6987 7.09351 23.2432 7.09451 23.7877 7.09753C23.8286 7.09773 23.8695 7.09793 23.9117 7.09813C24.163 7.09941 24.4144 7.10146 24.6657 7.1045C24.7446 7.10537 24.8234 7.10604 24.9023 7.10648C25.6674 7.11117 25.6674 7.11117 26.0238 7.25957C26.077 7.27828 26.1303 7.2968 26.1836 7.31501C26.2324 7.33283 26.281 7.3508 26.3296 7.36894C26.3559 7.37875 26.3822 7.38855 26.4093 7.39865C26.8617 7.56885 27.2853 7.77313 27.7089 8.00494C27.737 8.02025 27.7651 8.03556 27.794 8.05133C28.4604 8.41688 29.0837 8.84652 29.6435 9.36225C29.7178 9.43052 29.7938 9.49649 29.8701 9.56252C29.9824 9.66225 30.0822 9.76687 30.1789 9.88165C30.218 9.92746 30.2583 9.97227 30.2996 10.0161C31.4105 11.1965 32.1524 12.914 32.1608 14.541C32.1611 14.5788 32.1615 14.6166 32.1619 14.6555C32.1627 14.7767 32.163 14.8979 32.1629 15.0191C32.163 15.0605 32.163 15.1018 32.1631 15.1444C32.1625 15.765 32.1289 16.3439 31.9867 16.9494C31.974 17.0111 31.9614 17.0729 31.949 17.1347C31.7669 18.0189 31.4678 18.8689 31.1107 19.696C31.0808 19.7654 31.0512 19.835 31.0216 19.9045C30.92 20.142 30.8112 20.3745 30.6942 20.6048C30.6099 20.7709 30.5302 20.9389 30.4514 21.1077C30.2814 21.47 30.0933 21.8223 29.9035 22.1746C29.7557 22.45 29.6178 22.7287 29.4848 23.0116C29.3829 23.2274 29.2743 23.4387 29.162 23.6491C29.0367 23.8842 28.9178 24.1223 28.8 24.3611C28.6477 24.6686 28.6477 24.6686 28.5839 24.7596C28.5626 24.7596 28.5412 24.7596 28.5191 24.7596C28.577 24.432 28.6415 24.1057 28.7055 23.7792C28.729 23.6589 28.7526 23.5385 28.7761 23.4181C28.7819 23.3883 28.7878 23.3585 28.7938 23.3278C28.8268 23.1588 28.8596 22.9899 28.8921 22.8208C28.8994 22.7825 28.9068 22.7442 28.9144 22.7047C28.9292 22.6277 28.9439 22.5507 28.9587 22.4737C29.0097 22.2084 29.0635 21.9438 29.1183 21.6793C29.3379 20.618 29.3379 20.618 29.4589 19.542C29.461 19.5143 29.4631 19.4867 29.4653 19.4583C29.478 19.2918 29.4866 19.1255 29.4914 18.9586C29.4921 18.9371 29.4928 18.9156 29.4935 18.8934C29.545 17.1115 29.1905 15.2606 28.3588 13.6765C28.3226 13.6073 28.287 13.5378 28.2515 13.4682C28.119 13.2107 27.9805 12.9685 27.8062 12.7364C27.7636 12.677 27.7211 12.6176 27.6786 12.5582C27.4865 12.2956 27.2832 12.0469 27.0637 11.8067C27.0062 11.7431 26.9512 11.6784 26.8967 11.6123C26.8108 11.5113 26.7159 11.4263 26.6148 11.3406C26.5344 11.2713 26.4576 11.1988 26.3802 11.1262C25.9643 10.7485 25.4945 10.4409 25.0191 10.1438C24.996 10.1271 24.9728 10.1104 24.949 10.0932C24.8351 10.0354 24.7383 10.0333 24.6137 10.0349C24.5774 10.0348 24.5774 10.0348 24.5403 10.0347C24.4593 10.0345 24.3783 10.035 24.2973 10.0356C24.2391 10.0356 24.181 10.0356 24.1229 10.0355C23.9651 10.0355 23.8074 10.0361 23.6497 10.0367C23.4848 10.0374 23.3199 10.0374 23.155 10.0375C22.8428 10.0378 22.5307 10.0386 22.2185 10.0396C21.8631 10.0407 21.5077 10.0412 21.1522 10.0417C20.4211 10.0427 19.69 10.0444 18.9589 10.0466C18.9564 10.7314 18.9554 11.4162 18.9565 12.1011C18.957 12.4191 18.9569 12.737 18.9555 13.055C18.9543 13.3322 18.9541 13.6093 18.9552 13.8865C18.9557 14.0333 18.9557 14.18 18.9545 14.3267C18.9534 14.465 18.9536 14.6031 18.9549 14.7413C18.9551 14.7919 18.9549 14.8426 18.9541 14.8932C18.9429 15.1671 18.9429 15.1671 19.0543 15.4068C19.128 15.4642 19.2022 15.5094 19.283 15.5559C19.3253 15.5932 19.3667 15.6315 19.4066 15.6713C19.4235 15.6881 19.4404 15.7048 19.4578 15.7221C19.5099 15.7827 19.5099 15.7827 19.5574 15.8823C19.6472 15.986 19.6562 15.9913 19.784 16.0011C19.8452 16.0019 19.9064 16.0016 19.9676 16.0005C20.0013 16.0007 20.035 16.0009 20.0698 16.001C20.1832 16.0014 20.2965 16.0003 20.4098 15.9992C20.491 15.9992 20.5721 15.9992 20.6532 15.9993C20.828 15.9994 21.0028 15.9988 21.1776 15.9977C21.4304 15.9961 21.6832 15.9956 21.9359 15.9954C22.346 15.995 22.7561 15.9937 23.1661 15.9918C23.5645 15.99 23.9629 15.9887 24.3612 15.9878C24.3858 15.9878 24.4103 15.9877 24.4356 15.9877C24.5588 15.9874 24.682 15.9872 24.8052 15.9869C25.8271 15.9849 26.849 15.9815 27.871 15.9772C27.8777 17.1601 27.8828 18.343 27.8859 19.5259C27.8862 19.666 27.8866 19.8061 27.887 19.9462C27.8871 19.988 27.8871 19.988 27.8872 20.0307C27.8885 20.4805 27.8908 20.9303 27.8935 21.38C27.8962 21.8426 27.8978 22.3051 27.8984 22.7676C27.8988 23.0524 27.9001 23.3371 27.9025 23.6218C27.904 23.8178 27.9045 24.0138 27.9041 24.2099C27.9039 24.3225 27.9042 24.4351 27.9058 24.5477C27.9131 25.1598 27.8153 25.6532 27.5793 26.2179C27.553 26.2825 27.5267 26.3472 27.5004 26.4118C27.3762 26.7151 27.2373 27.0106 27.0874 27.3019C27.0512 27.3724 27.0158 27.4433 26.9816 27.5148C26.7557 27.9866 26.4661 28.4247 26.1534 28.8429C26.1399 28.8611 26.1264 28.8792 26.1125 28.8979C25.9527 29.1123 25.7864 29.318 25.6051 29.5148C25.5433 29.5821 25.4836 29.6506 25.4242 29.7199C25.1923 29.9849 24.938 30.212 24.6627 30.4309C24.6352 30.4533 24.6077 30.4757 24.5794 30.4988C24.5527 30.5205 24.526 30.5422 24.4986 30.5645C24.4755 30.5833 24.4524 30.6021 24.4286 30.6215C23.9149 31.0131 23.3586 31.34 22.755 31.5707C22.6915 31.5953 22.629 31.6215 22.5664 31.6484C22.2751 31.7682 21.9752 31.8437 21.669 31.9155C21.6274 31.9253 21.5858 31.9351 21.5429 31.9452C21.3391 31.9915 21.1402 32.0305 20.9315 32.0446C20.8681 32.048 20.8681 32.048 20.8062 32.0836C20.7488 32.0867 20.6912 32.0878 20.6338 32.0878C20.5797 32.088 20.5797 32.088 20.5246 32.0881C20.466 32.088 20.466 32.088 20.4063 32.0879C20.3463 32.088 20.3463 32.088 20.2852 32.088C20.1788 32.0881 20.0725 32.0879 19.9661 32.0878C19.9009 32.0877 19.8357 32.0878 19.7705 32.0879C19.6455 32.0881 19.5205 32.088 19.3956 32.0879C19.3566 32.088 19.3176 32.0881 19.2774 32.0881C19.2413 32.088 19.2052 32.0879 19.168 32.0878C19.1202 32.0878 19.1202 32.0878 19.0715 32.0878C18.9914 32.0836 18.9914 32.0836 18.8941 32.0512C18.8398 32.0462 18.7854 32.0412 18.7309 32.0369C17.9847 31.9735 17.2364 31.7689 16.5284 31.5327C16.4977 31.5227 16.4671 31.5126 16.4355 31.5022C16.007 31.361 15.5925 31.1977 15.1801 31.0152C15.0992 30.9804 15.0178 30.9479 14.9359 30.9157C14.7994 30.8616 14.6681 30.8014 14.5374 30.7347C14.5047 30.7182 14.5047 30.7182 14.4714 30.7014C14.2729 30.6008 14.0766 30.4959 13.88 30.3914C13.701 30.2969 13.5198 30.2085 13.3363 30.123C12.9749 29.9545 12.6242 29.7669 12.2731 29.578C12.0122 29.4381 11.7489 29.3067 11.4805 29.1815C11.2673 29.0815 11.059 28.9734 10.8511 28.8627C10.6282 28.744 10.4031 28.6304 10.1765 28.5188C10.1872 28.4867 10.1979 28.4547 10.2089 28.4216C10.2488 28.431 10.2886 28.4405 10.3296 28.4502C10.8591 28.574 11.3923 28.6768 11.9265 28.7781C12.0609 28.8037 12.1953 28.8293 12.3296 28.8551C12.3623 28.8613 12.3951 28.8676 12.4288 28.874C12.6496 28.9165 12.87 28.9602 13.0904 29.0044C13.1188 29.0101 13.1471 29.0158 13.1763 29.0217C13.3172 29.05 13.4581 29.0784 13.5989 29.1069C15.3957 29.4696 17.231 29.5438 19.0238 29.1022C19.0505 29.0958 19.0772 29.0894 19.1048 29.0828C20.7159 28.6957 22.1619 27.904 23.3664 26.7688C23.3901 26.7465 23.4138 26.7241 23.4383 26.7011C23.5846 26.5591 23.7138 26.4064 23.8412 26.2473C23.9181 26.1521 23.9976 26.0596 24.0773 25.9667C24.6601 25.2781 24.6601 25.2781 24.9258 24.4704C24.9258 24.4471 24.9259 24.4237 24.9259 24.3997C24.9259 24.3211 24.9258 24.2424 24.9256 24.1638C24.9256 24.1076 24.9256 24.0514 24.9256 23.9952C24.9256 23.8423 24.9254 23.6894 24.9252 23.5364C24.925 23.3767 24.925 23.2171 24.9249 23.0574C24.9248 22.7548 24.9246 22.4523 24.9242 22.1498C24.9239 21.8054 24.9237 21.461 24.9235 21.1166C24.9232 20.4081 24.9226 19.6996 24.9219 18.991C24.2377 18.9835 23.5534 18.9778 22.8691 18.9743C22.5514 18.9726 22.2337 18.9703 21.9159 18.9666C21.639 18.9634 21.362 18.9613 21.085 18.9606C20.9384 18.9601 20.7918 18.9591 20.6452 18.9568C20.5071 18.9546 20.369 18.9539 20.2309 18.9544C20.1803 18.9543 20.1297 18.9537 20.0791 18.9524C19.7976 18.9411 19.7976 18.9411 19.5532 19.0626C19.488 19.1439 19.434 19.226 19.3802 19.3151C19.2945 19.4012 19.2945 19.4012 19.2243 19.461C19.2007 19.4813 19.1771 19.5017 19.1528 19.5227C19.0886 19.5744 19.0886 19.5744 18.9914 19.6392C18.9768 19.7016 18.9768 19.7016 18.9794 19.7747C18.9792 19.8033 18.979 19.8319 18.9788 19.8613C18.9791 19.8929 18.9794 19.9245 18.9797 19.957C18.9796 19.9904 18.9795 20.0238 18.9794 20.0583C18.9792 20.1709 18.9798 20.2836 18.9803 20.3962C18.9803 20.4767 18.9803 20.5572 18.9803 20.6376C18.9802 20.8112 18.9805 20.9849 18.9811 21.1585C18.9819 21.4095 18.9821 21.6605 18.9822 21.9115C18.9825 22.3188 18.9831 22.726 18.984 23.1333C18.9849 23.5289 18.9856 23.9246 18.986 24.3202C18.986 24.3446 18.9861 24.369 18.9861 24.3941C18.9862 24.5164 18.9863 24.6387 18.9865 24.761C18.9875 25.7759 18.9892 26.7909 18.9914 27.8059C18.515 27.8146 18.0387 27.8232 17.5623 27.8296C17.5357 27.83 17.5092 27.8303 17.4818 27.8307C16.2775 27.8466 15.073 27.8528 13.8685 27.856C13.4531 27.8572 13.0376 27.8589 12.6222 27.8621C12.2531 27.8648 11.8839 27.8665 11.5148 27.867C11.3215 27.8673 11.1282 27.8681 10.9349 27.8701C9.43216 27.8852 9.43216 27.8852 8.80192 27.586C8.67927 27.5283 8.55364 27.4783 8.42805 27.4273C7.27505 26.9498 6.114 26.2544 5.25061 25.3429C5.17275 25.2643 5.09444 25.1865 5.01439 25.1101C3.85094 23.9875 3.02457 22.2269 2.97216 20.6069C2.97111 20.5386 2.97042 20.4702 2.97006 20.4019C2.96952 20.3463 2.96952 20.3463 2.96898 20.2896C2.96811 20.1707 2.9679 20.0518 2.96791 19.9329C2.96787 19.8923 2.96782 19.8517 2.96777 19.8099C2.96834 19.194 3.00378 18.6199 3.14413 18.0188C3.15688 17.957 3.16946 17.8952 3.18185 17.8334C3.36467 16.9461 3.66662 16.0965 4.02321 15.266C4.06085 15.1775 4.0966 15.0881 4.13255 14.9989C4.22165 14.7852 4.32662 14.58 4.43147 14.3738C4.47866 14.2804 4.52527 14.1868 4.57182 14.0931C4.74641 13.7419 4.92261 13.3919 5.10651 13.0455C5.18566 12.8962 5.26276 12.7461 5.3377 12.5946C5.50885 12.2492 5.68758 11.9076 5.86514 11.5654C5.93172 11.437 5.99801 11.3084 6.06404 11.1797C6.10776 11.0946 6.15155 11.0094 6.19534 10.9243C6.21609 10.8839 6.23681 10.8434 6.25748 10.803C6.36741 10.588 6.4798 10.3786 6.61172 10.1762C6.65095 10.2908 6.6371 10.3704 6.61045 10.4874C6.60241 10.5236 6.59438 10.5597 6.58609 10.597C6.57717 10.6359 6.56825 10.6749 6.55906 10.715C6.54063 10.7981 6.52227 10.8812 6.50399 10.9643C6.49934 10.9853 6.49468 11.0064 6.48989 11.0281C6.44661 11.2249 6.40801 11.4224 6.37069 11.6204C6.31402 11.9192 6.25604 12.2178 6.1964 12.516C6.1822 12.5871 6.1681 12.6583 6.154 12.7295C6.10024 12.9998 6.04384 13.2694 5.98484 13.5386C5.60171 15.2992 5.5356 17.0944 5.93116 18.8614C5.94362 18.92 5.95607 18.9786 5.96851 19.0371C6.14288 19.8333 6.42605 20.604 6.80616 21.3244C6.81853 21.3479 6.83091 21.3715 6.84365 21.3957C7.25358 22.1697 7.77472 22.8458 8.39413 23.4633C8.41982 23.4901 8.44551 23.5169 8.47198 23.5445C8.96659 24.0552 9.56693 24.463 10.1765 24.8244C10.2002 24.8413 10.2239 24.8581 10.2483 24.8755C10.3636 24.9344 10.4465 24.9336 10.5758 24.9333C10.5994 24.9334 10.6229 24.9335 10.6472 24.9335C10.726 24.9337 10.8048 24.9332 10.8835 24.9326C10.9401 24.9326 10.9966 24.9326 11.0531 24.9327C11.2065 24.9327 11.3599 24.9321 11.5133 24.9315C11.6736 24.9309 11.834 24.9308 11.9943 24.9307C12.2979 24.9304 12.6014 24.9296 12.905 24.9286C13.2506 24.9275 13.5963 24.927 13.9419 24.9265C14.6528 24.9255 15.3637 24.9238 16.0747 24.9216C16.078 24.2416 16.0795 23.5615 16.0788 22.8815C16.0785 22.5657 16.0788 22.25 16.0806 21.9342C16.0821 21.6589 16.0825 21.3837 16.0815 21.1084C16.081 20.9627 16.0811 20.817 16.0825 20.6713C16.0839 20.534 16.0837 20.3968 16.0824 20.2595C16.0822 20.2093 16.0825 20.159 16.0834 20.1087C16.0928 19.8296 16.0928 19.8296 15.9725 19.5872C15.8907 19.5216 15.8072 19.4676 15.7182 19.4123C15.6699 19.3689 15.6224 19.3245 15.5764 19.2787C15.5568 19.2592 15.5372 19.2397 15.5169 19.2197C15.4589 19.1531 15.4589 19.1531 15.4107 19.0532C15.322 18.9501 15.3133 18.9446 15.1868 18.9347C15.1266 18.9339 15.0664 18.9342 15.0061 18.9353C14.973 18.9351 14.9398 18.9349 14.9056 18.9348C14.794 18.9344 14.6824 18.9355 14.5709 18.9366C14.491 18.9366 14.4112 18.9366 14.3314 18.9365C14.1593 18.9364 13.9872 18.937 13.8152 18.9381C13.5664 18.9397 13.3176 18.9402 13.0689 18.9404C12.6653 18.9408 12.2617 18.9421 11.858 18.944C11.466 18.9458 11.0739 18.9471 10.6818 18.948C10.6577 18.948 10.6335 18.9481 10.6086 18.9481C10.4874 18.9484 10.3661 18.9486 10.2449 18.9489C9.23908 18.9509 8.23327 18.9543 7.22746 18.9586C7.22672 17.8057 7.22615 16.6528 7.22581 15.4998C7.22576 15.3636 7.22572 15.2273 7.22568 15.0911C7.22567 15.0504 7.22567 15.0504 7.22565 15.0089C7.22551 14.5702 7.22526 14.1316 7.22496 13.6929C7.22466 13.2425 7.22448 12.7921 7.22441 12.3417C7.22437 12.064 7.22423 11.7863 7.22396 11.5086C7.22379 11.3179 7.22374 11.1272 7.22378 10.9366C7.2238 10.8267 7.22375 10.7169 7.2236 10.607C7.22344 10.4875 7.22348 10.368 7.22356 10.2485C7.22342 10.1972 7.22342 10.1972 7.22328 10.1449C7.22457 9.49296 7.22457 9.49296 7.32228 9.20743C7.33475 9.17048 7.34722 9.13353 7.36006 9.09546C7.37965 9.03991 7.37965 9.03991 7.39962 8.98324C7.4123 8.94558 7.42498 8.90791 7.43805 8.86911C7.49851 8.69273 7.56247 8.52414 7.64974 8.35937C7.68537 8.28821 7.71408 8.21586 7.74281 8.14166C8.14537 7.11518 8.7917 6.13976 9.54522 5.33677C9.61144 5.26555 9.67459 5.19316 9.73701 5.11865C10.4714 4.27636 11.5137 3.67685 12.5423 3.27346C12.569 3.26283 12.5957 3.25221 12.6232 3.24126C12.8516 3.15395 13.0833 3.09346 13.3214 3.03891C13.3849 3.02432 13.4482 3.00925 13.5115 2.99413C13.728 2.94384 13.9381 2.90427 14.1602 2.89105C14.2678 2.88068 14.348 2.84806 14.4617 2.84797ZM10.9543 5.70401C10.9294 5.72498 10.9044 5.74595 10.8787 5.76756C10.7495 5.87678 10.6364 5.992 10.5272 6.12126C10.4876 6.16746 10.4469 6.21271 10.4052 6.25696C9.97118 6.71817 9.61653 7.25608 9.31938 7.81353C9.28352 7.88074 9.24689 7.94754 9.20976 8.01405C9.0814 8.24545 8.9672 8.48114 8.86201 8.72398C8.85101 8.7491 8.84001 8.77422 8.82868 8.80011C8.80562 8.85439 8.78336 8.90903 8.7618 8.96392C8.73881 9.02215 8.71567 9.08034 8.69119 9.13796C8.49355 9.60613 8.4589 10.0238 8.46262 10.5279C8.46236 10.6066 8.46201 10.6852 8.46156 10.7639C8.46074 10.9534 8.46093 11.143 8.46159 11.3326C8.46231 11.5536 8.46173 11.7746 8.46109 11.9956C8.45998 12.3896 8.45986 12.7835 8.46039 13.1775C8.4609 13.5598 8.46093 13.942 8.46033 14.3243C8.46029 14.3479 8.46025 14.3715 8.46021 14.3959C8.46002 14.5145 8.45983 14.6332 8.45962 14.7518C8.45795 15.7328 8.45792 16.7138 8.45894 17.6948C9.61044 17.6965 10.7619 17.6969 11.9134 17.6877C11.9356 17.6875 11.9578 17.6873 11.9807 17.6871C12.2468 17.685 12.5129 17.6827 12.779 17.6803C13.009 17.6783 13.239 17.6764 13.469 17.6744C13.9378 17.6705 14.4067 17.6665 14.8756 17.6623C14.8756 17.5233 14.8756 17.3843 14.8756 17.241C12.8757 17.241 10.8759 17.241 8.81542 17.241C8.82515 15.4633 8.82515 15.4633 8.83055 14.7173C8.83427 14.2026 8.83783 13.6879 8.84032 13.1732C8.84214 12.7983 8.84451 12.4234 8.84756 12.0485C8.84915 11.8501 8.85046 11.6518 8.8511 11.4534C8.85172 11.2664 8.85309 11.0794 8.85501 10.8924C8.85559 10.824 8.8559 10.7556 8.85591 10.6873C8.85622 10.1527 8.94123 9.75511 9.23064 9.29516C9.2477 9.26742 9.26475 9.23968 9.28232 9.21111C9.40927 9.00673 9.54464 8.81208 9.69042 8.62068C9.73165 8.56265 9.77284 8.50458 9.81398 8.44649C9.96707 8.23584 10.1359 8.03965 10.3062 7.8429C10.3362 7.80793 10.3362 7.80793 10.3668 7.77226C10.4216 7.70887 10.4772 7.64615 10.533 7.58364C10.5746 7.53702 10.5746 7.53702 10.6169 7.48946C10.7616 7.32846 10.9065 7.17095 11.0727 7.0317C11.1361 6.97853 11.1983 6.92447 11.2603 6.86966C11.4955 6.66225 11.732 6.46436 11.9914 6.28734C12.0102 6.27444 12.0291 6.26154 12.0486 6.24824C12.2948 6.08059 12.5425 5.91624 12.8015 5.76883C12.8241 5.75592 12.8467 5.74301 12.87 5.72971C13.2279 5.52616 13.5865 5.33989 13.9682 5.18549C13.9905 5.17632 14.0127 5.16715 14.0357 5.15771C14.9111 4.79842 15.8282 4.54635 16.7657 4.41554C16.7971 4.41108 16.8285 4.40662 16.8608 4.40202C16.8883 4.39837 16.9157 4.39472 16.944 4.39097C17.0235 4.37776 17.0235 4.37776 17.1117 4.31049C14.8493 3.88079 12.7339 4.14033 10.9543 5.70401ZM17.3062 8.32901C17.3062 10.4893 17.3062 12.6496 17.3062 14.8753C17.4452 14.8753 17.5842 14.8753 17.7275 14.8753C17.7275 12.8648 17.7275 10.8542 17.7275 8.78271C19.5524 8.7788 19.5524 8.7788 20.3167 8.77797C20.4913 8.77778 20.666 8.77758 20.8406 8.77737C20.8735 8.77734 20.8735 8.77734 20.9069 8.7773C21.26 8.77687 21.6131 8.77611 21.9661 8.77521C22.3287 8.7743 22.6912 8.77377 23.0537 8.77357C23.2572 8.77344 23.4608 8.77314 23.6643 8.77244C23.856 8.77177 24.0476 8.77157 24.2393 8.77172C24.3095 8.77169 24.3798 8.7715 24.4501 8.77113C24.5462 8.77064 24.6423 8.77076 24.7384 8.77102C24.7661 8.77074 24.7937 8.77046 24.8222 8.77017C25.7152 8.77679 26.7008 9.72976 27.3327 10.292C27.3788 10.3329 27.4254 10.3732 27.4721 10.4133C27.6096 10.5322 27.7319 10.6557 27.8492 10.7945C27.9013 10.8543 27.9557 10.9091 28.0128 10.9641C28.1624 11.1118 28.2914 11.2756 28.4219 11.4401C28.4594 11.4866 28.4594 11.4866 28.4977 11.5339C28.7436 11.8443 28.9565 12.1747 29.1673 12.5096C29.1886 12.5432 29.21 12.5767 29.232 12.6113C29.6169 13.2428 29.9049 13.9488 30.1395 14.6485C30.1465 14.6691 30.1534 14.6897 30.1606 14.7109C30.4095 15.4534 30.548 16.2088 30.658 16.9818C30.727 16.8656 30.7435 16.7531 30.7635 16.6204C30.7669 16.5978 30.7703 16.5753 30.7739 16.552C30.7811 16.5042 30.7882 16.4564 30.7952 16.4086C30.8057 16.3369 30.8166 16.2652 30.8276 16.1936C31.0821 14.5055 30.7862 12.7682 29.7718 11.3711C29.6001 11.1399 29.4187 10.9218 29.2181 10.7149C29.1819 10.6775 29.1459 10.6399 29.1101 10.6021C28.7969 10.2727 28.4686 9.98547 28.0978 9.72253C28.0779 9.70827 28.0579 9.69401 28.0373 9.67931C27.5189 9.31287 26.9599 9.00759 26.3802 8.75031C26.3425 8.7331 26.3047 8.71588 26.2658 8.69815C26.1536 8.64824 26.0405 8.60153 25.9265 8.55586C25.906 8.54751 25.8854 8.53915 25.8643 8.53054C25.4606 8.37004 25.0998 8.33339 24.6683 8.33637C24.6028 8.3361 24.5373 8.33575 24.4718 8.33533C24.2954 8.33441 24.1191 8.33467 23.9428 8.33516C23.7564 8.33547 23.5701 8.33467 23.3838 8.33399C23.0303 8.33288 22.6769 8.33275 22.3235 8.33298C21.9258 8.33319 21.528 8.3323 21.1303 8.33132C20.2553 8.3292 19.3803 8.32884 18.5052 8.32901C18.1095 8.32901 17.7139 8.32901 17.3062 8.32901ZM16.1532 16.4616C15.8932 16.8168 15.7864 17.2482 15.8226 17.6844C15.8974 18.1387 16.1311 18.5435 16.4919 18.827C16.8372 19.0699 17.2387 19.1939 17.6626 19.1531C18.1763 19.0609 18.5811 18.8314 18.8941 18.4077C19.1544 17.9858 19.2147 17.5244 19.1148 17.0408C18.9915 16.6106 18.6909 16.2432 18.3108 16.0096C18.1945 15.9558 18.0774 15.9155 17.9543 15.8799C17.9292 15.8726 17.9041 15.8653 17.8782 15.8578C17.2364 15.6937 16.5627 15.9558 16.1532 16.4616ZM21.7257 17.2573C21.6848 17.2576 21.6439 17.258 21.6018 17.2584C21.0989 17.2632 20.5961 17.2682 20.0932 17.2735C20.0932 17.4125 20.0932 17.5515 20.0932 17.6948C22.1038 17.6948 24.1143 17.6948 26.1858 17.6948C26.1858 18.2402 26.1858 18.7856 26.1858 19.3475C26.1881 19.7392 26.1905 20.1309 26.1938 20.5226C26.1952 20.6978 26.1965 20.8729 26.1978 21.048C26.1981 21.0932 26.1981 21.0932 26.1985 21.1393C26.1989 21.2006 26.1994 21.2619 26.1998 21.3232C26.2028 21.7278 26.2058 22.1325 26.2092 22.5371C26.2116 22.8147 26.2137 23.0924 26.2156 23.3701C26.2166 23.5156 26.2177 23.6612 26.2191 23.8068C26.2204 23.9424 26.2213 24.078 26.2221 24.2136C26.2224 24.2631 26.2229 24.3126 26.2234 24.362C26.2346 25.3639 25.4645 26.3238 24.8176 27.0471C24.7551 27.1173 24.6997 27.1807 24.658 27.2653C24.6302 27.3198 24.6302 27.3198 24.533 27.3522C24.483 27.4015 24.483 27.4015 24.4338 27.4636C24.19 27.7498 23.9195 27.9938 23.6256 28.2272C23.5877 28.2582 23.5499 28.2893 23.5121 28.3205C23.2369 28.546 22.9542 28.7503 22.6534 28.9401C22.6185 28.9624 22.6185 28.9624 22.583 28.9851C21.9461 29.3901 21.2605 29.7299 20.5469 29.9772C20.521 29.9862 20.495 29.9953 20.4683 30.0047C19.6394 30.2908 18.7869 30.4617 17.9219 30.5929C17.9219 30.6036 17.9219 30.6143 17.9219 30.6253C19.8598 30.9696 21.6943 30.9168 23.3988 29.8151C23.4995 29.7433 23.5951 29.667 23.6904 29.5883C23.7151 29.5691 23.7398 29.55 23.7652 29.5303C24.6301 28.8578 25.2603 28.0073 25.7969 27.0605C25.8085 27.0401 25.8201 27.0197 25.8321 26.9987C26.0216 26.6637 26.1722 26.3156 26.3154 25.9586C26.3391 25.9002 26.3391 25.9002 26.3632 25.8407C26.4029 25.7401 26.4403 25.6389 26.4775 25.5373C26.489 25.508 26.5005 25.4786 26.5123 25.4484C26.6278 25.1235 26.6258 24.8145 26.6248 24.4744C26.6251 24.4105 26.6254 24.3466 26.6258 24.2828C26.6267 24.1101 26.6268 23.9374 26.6268 23.7648C26.6269 23.5825 26.6277 23.4003 26.6285 23.2181C26.6298 22.8721 26.6304 22.5261 26.6309 22.1802C26.6314 21.7911 26.6326 21.402 26.6339 21.0129C26.6381 19.7556 26.6401 18.4983 26.6395 17.241C26.229 17.2401 25.8185 17.2394 25.408 17.239C25.3765 17.239 25.345 17.239 25.3125 17.2389C24.1168 17.238 22.9213 17.2459 21.7257 17.2573ZM4.44042 17.9864C4.09334 19.8525 4.12586 21.7346 5.2182 23.366C5.44271 23.6908 5.68865 23.9901 5.96357 24.2735C5.99108 24.3022 5.99108 24.3022 6.01914 24.3316C6.29582 24.6201 6.58181 24.8788 6.90339 25.116C6.93926 25.1432 6.97512 25.1703 7.01099 25.1974C7.5835 25.6243 8.26094 26.0201 8.92969 26.2717C9.01715 26.3054 9.10272 26.3411 9.18874 26.3781C9.65755 26.5726 10.0676 26.6105 10.571 26.6038C10.6499 26.6037 10.7289 26.6038 10.8079 26.6039C10.998 26.604 11.1882 26.6029 11.3783 26.6012C11.6 26.5993 11.8217 26.599 12.0434 26.5987C12.4386 26.5981 12.8338 26.5964 13.229 26.5939C13.6123 26.5916 13.9957 26.5897 14.3791 26.5886C14.403 26.5886 14.427 26.5885 14.4517 26.5884C14.6602 26.5878 14.8687 26.5873 15.0773 26.5867C15.9715 26.5843 16.8657 26.5791 17.7599 26.5744C17.7492 24.4355 17.7385 22.2966 17.7275 20.0929C17.5991 20.0929 17.4708 20.0929 17.3386 20.0929C17.3386 22.1035 17.3386 24.114 17.3386 26.1855C15.5309 26.1959 15.5309 26.1959 14.7719 26.1982C14.5985 26.1987 14.4251 26.1992 14.2517 26.1997C14.23 26.1998 14.2083 26.1999 14.1859 26.1999C13.836 26.2011 13.4861 26.2031 13.1362 26.2055C12.7766 26.2079 12.417 26.2093 12.0574 26.2099C11.8556 26.2102 11.6539 26.211 11.4521 26.2129C11.2619 26.2147 11.0717 26.2152 10.8814 26.2148C10.8119 26.2149 10.7424 26.2154 10.6729 26.2164C10.2245 26.2225 9.90972 26.167 9.52839 25.9262C9.49114 25.9033 9.45389 25.8804 9.41662 25.8575C9.31988 25.7969 9.22554 25.7336 9.1314 25.669C9.0979 25.6463 9.0644 25.6236 9.02989 25.6002C8.57261 25.2888 8.15016 24.9469 7.7361 24.5804C7.68588 24.5368 7.63397 24.4951 7.58192 24.4537C7.48344 24.3678 7.40196 24.2764 7.31747 24.1771C7.26412 24.1163 7.20875 24.0602 7.15049 24.0041C7.00083 23.8564 6.87176 23.6927 6.74135 23.5281C6.7152 23.4952 6.68905 23.4624 6.6621 23.4286C6.39888 23.0945 6.16021 22.7431 5.94572 22.3757C5.91894 22.3306 5.89171 22.2857 5.86322 22.2416C5.12278 21.0919 4.70026 19.6229 4.53394 18.2715C4.51912 18.1541 4.50731 18.0868 4.44042 17.9864Z" fill="#141414"/>
</svg>
